<svg xmlns="http://www.w3.org/2000/svg" xmlns:xlink="http://www.w3.org/1999/xlink" width="172" height="134" shape-rendering="crispEdges"><path fill="#F7F7F7" d="M0 0h172v134H0z"/><g fill="#535353"><path d="M32 101h16v1H32zm0 7h4v1h-4zm6-3h4v1h-4zm8 3h2v1h-2zm22-7h28v1H68zm5 6h1v1h-1zm7 1h4v1h-4zm7-4h3v1h-3z"/><path d="M64 66v2h-2v13h-2v2h-3v2h-3v2h-2v2h-4v-2h-2v-2h-2v-4h-2v12h2v2h2v2h2v2h2v2h2v8h4v-2h-2v-2h2v-2h2v-2h2v2h2v6h4v-2h-2v-8h2v-2h2v-3h2v-7h2v2h2v-4h-4v-4h8v-2h4V68h-2v-2m-14 3h4v4h-4m1-3h2v2h-2"/><path d="M90 86v1h-1v1h-1v4h1v1h1v1h4v-1h1v-1h1v-4h-1v-1h-1v-1m0-5h1v1h-1zm0 2h1v1h-1zm2-2h1v1h-1zm0 2h1v1h-1zm1-5h1v1h-1zm0 2h1v1h-1zm0 2h1v1h-1zm1-1h1v1h-1zm0 4h1v1h-1zm0 2h1v1h-1zm0 2h1v1h-1zm1-11h1v1h-1zm0 6h1v1h-1zm0 2h1v1h-1zm1-9h1v1h-1zm0 2h1v1h-1zm0 2h1v1h-1zm1-3h1v1h-1zm0 4h1v1h-1zm0 2h1v1h-1zm0 2h1v1h-1zm1-11h1v1h-1zm0 4h1v1h-1zm0 2h1v1h-1zm0 2h1v1h-1zm1-7h1v1h-1zm0 6h1v1h-1zm1-10h1v1h-1zm0 5h1v1h-1zm0 2h1v1h-1zm0 2h1v1h-1zm0 3h1v1h-1zm1-10h1v1h-1zm0 2h1v1h-1zm1-6h1v1h-1zm0 3h1v1h-1zm0 2h1v1h-1zm0 2h1v1h-1zm0 2h1v1h-1zm1 1h1v1h-1zm1-10h1v1h-1zm0 2h1v1h-1zm0 3h1v1h-1zm1-6h1v1h-1zm0 5h1v1h-1zm0 2h1v1h-1zm1-5h1v1h-1zm0 2h1v1h-1zm1-5h1v1h-1zm0 2h1v1h-1zm1-3h1v1h-1zm0 4h1v1h-1zm1-2h1v1h-1z" id="a"/><use xlink:href="#a" transform="translate(5 -29)"/><use xlink:href="#a" transform="translate(30 -16)"/></g></svg>